<svg id="Gradient" enable-background="new 0 0 512 512" height="512" viewBox="0 0 512 512" width="512" xmlns="http://www.w3.org/2000/svg" xmlns:xlink="http://www.w3.org/1999/xlink"><linearGradient id="SVGID_1_" gradientUnits="userSpaceOnUse" x1="46.343" x2="465.657" y1="102.343" y2="521.657"><stop offset=".0037269" stop-color="#ffc811"/><stop offset=".219786" stop-color="#ec8b28"/><stop offset=".469886" stop-color="#de442e"/><stop offset=".614776" stop-color="#c82a5a"/><stop offset=".834343" stop-color="#774293"/><stop offset="1" stop-color="#4c3c93"/></linearGradient><path d="m282.5839844 200 13.9882813 34.9707031c1.2148437 3.038086 4.1562499 5.0292969 7.4277343 5.0292969h40c2.6660156 0 5.15625-1.328125 6.6416016-3.5410156 1.4863281-2.2128906 1.7724609-5.0205078.7626953-7.4882813l-72-176c-1.2294922-3.0068359-4.15625-4.9707031-7.4042969-4.9707031h-32c-3.2480469 0-6.1748047 1.9638672-7.4042969 4.9707031l-72 176c-1.0097656 2.4677734-.7236328 5.2753906.7626953 7.4882813 1.4853516 2.2128906 3.975586 3.5410156 6.6416016 3.5410156h40c3.2714844 0 6.2128906-1.9912109 7.4277344-5.0292969l13.9882812-34.9707031zm-66.0117188-10.9707031-13.9882812 34.9707031h-22.6679688l65.4550781-160h21.2578125l65.4550781 160h-22.6679688l-13.9882813-34.9707031c-1.2148436-3.038086-4.1562498-5.0292969-7.4277342-5.0292969h-64c-3.2714844 0-6.2128906 1.9912109-7.4277344 5.0292969zm46.78125-88.1806641c-1.2607422-2.9414062-4.1533203-4.8486328-7.3535156-4.8486328s-6.0927734 1.9072266-7.3535156 4.8486328l-24 56c-1.0585938 2.4716797-.8056641 5.3105469.6748047 7.5556641s3.9892578 3.5957031 6.6787109 3.5957031h48c2.6894531 0 5.1982422-1.3505859 6.6787109-3.5957031s1.7333984-5.0839844.6748047-7.5556641zm-19.2216797 51.1513672 11.8681641-27.6914062 11.8681641 27.6914062zm-140.1318359 168c-4.4179688 0-8 3.5820313-8 8v32c0 4.4179688 3.5820313 8 8 8h16c13.2333984 0 24-10.7666016 24-24s-10.7666016-24-24-24zm24 24c0 4.4111328-3.5888672 8-8 8h-8v-16h8c4.4111328 0 8 3.5888672 8 8zm-8 40h-16c-4.4179688 0-8 3.5820313-8 8v32c0 4.4179688 3.5820313 8 8 8h16c13.2333984 0 24-10.7666016 24-24s-10.7666016-24-24-24zm0 32h-8v-16h8c4.4111328 0 8 3.5888672 8 8s-3.5888672 8-8 8zm-48-128c-4.4179688 0-8 3.5820313-8 8v160c0 4.4179688 3.5820313 8 8 8h56c26.4677734 0 48-21.5322266 48-48v-1.3730469c0-14.1835938-4.6845703-27.6484375-13.3193359-38.6269531 8.6347656-10.9785156 13.3193359-24.4433594 13.3193359-38.6269531v-1.3730469c0-26.4677734-21.5322266-48-48-48zm88 48v1.3730469c0 12.4541016-4.8496094 24.1630859-13.6572266 32.9697266-3.1240234 3.125-3.1240234 8.1894531 0 11.3144531 8.8076172 8.8066406 13.6572266 20.515625 13.6572266 32.9697265v1.3730469c0 17.6445313-14.3554688 32-32 32h-48v-144h48c17.6445313 0 32 14.3554688 32 32zm176 8v64c0 30.8789063 25.1210938 56 56 56s56-25.1210938 56-56c0-4.4179688-3.5820313-8-8-8h-32c-4.4179688 0-8 3.5820313-8 8 0 4.4111328-3.5888672 8-8 8s-8-3.5888672-8-8v-64c0-4.4111328 3.5888672-8 8-8s8 3.5888672 8 8c0 4.4179688 3.5820313 8 8 8h32c4.4179688 0 8-3.5820313 8-8 0-30.8789063-25.1210938-56-56-56s-56 25.1210938-56 56zm56-40c19.3164063 0 35.4794922 13.7646484 39.1962891 32h-16.5673828c-3.3017579-9.3125-12.1992188-16-22.6289063-16-13.2333984 0-24 10.7666016-24 24v64c0 13.2333984 10.7666016 24 24 24 10.4296875 0 19.3271484-6.6875 22.6289063-16h16.5673828c-3.7167969 18.2353516-19.8798828 32-39.1962891 32-22.0556641 0-40-17.9443359-40-40v-64c0-22.0556641 17.9443359-40 40-40zm101.6567383-45.6567383.0004883-.0004883-40-40c-1.5009766-1.5-3.5351563-2.3427734-5.6572266-2.3427734h-64v-192c0-4.4179688-3.5820313-8-8-8h-240c-4.4179688 0-8 3.5820313-8 8v192h-64c-2.1220703 0-4.15625.8427734-5.6572266 2.3427734l-40 40 .0004883.0004883c-1.4477539 1.4477539-2.3432617 3.4477539-2.3432617 5.6567383v224c0 4.4179688 3.5820313 8 8 8h192c2.2089844 0 4.2089844-.8955078 5.6567383-2.3432617l.0004883.0004883 34.3427734-34.3427735 34.3427734 34.3427734.0004883-.0004883c1.4477539 1.447754 3.4477539 2.3432618 5.6567383 2.3432618h192c4.4179688 0 8-3.5820313 8-8v-224c0-2.2089844-.8955078-4.2089844-2.3432617-5.6567383zm-48.9702149-26.3432617 23.9995117 24h-84.6860351v-24zm-300.6865234-200h224v224h-72-80-72zm104 240v172.6855469l-24 24v-196.6855469zm16 0h24v196.6855469l-24-24zm-196.6865234-40h60.6865234v24h-84.6860352zm140.6865234 248h-176v-208h104 72zm272 0h-176v-208h72 104z" fill="url(#SVGID_1_)"/></svg>