<svg height="496pt" viewBox="0 0 496 496" width="496pt" xmlns="http://www.w3.org/2000/svg" xmlns:xlink="http://www.w3.org/1999/xlink"><linearGradient id="a" gradientTransform="matrix(8 0 0 -8 -8 504)" gradientUnits="userSpaceOnUse" x1="32" x2="32" y1="1" y2="63"><stop offset="0" stop-color="#9f2fff"/><stop offset="1" stop-color="#0bb1d3"/></linearGradient><path d="m40.398438 360.480469c-.253907 2.472656-.398438 4.984375-.398438 7.519531 0 39.703125 32.304688 72 72 72 .609375 0 1.199219-.078125 1.800781-.089844 7.296875 32.457032 36.207031 56.089844 70.199219 56.089844 27.863281 0 52.039062-15.945312 64-39.167969 11.960938 23.214844 36.136719 39.167969 64 39.167969 34.238281 0 62.921875-24.039062 70.175781-56.121094.609375.015625 1.207031.121094 1.824219.121094 39.695312 0 72-32.296875 72-72 0-2.441406-.136719-4.894531-.390625-7.375 24.398437-11.976562 40.390625-37.183594 40.390625-64.625 0-18.425781-7.015625-35.199219-18.441406-47.945312 11.785156-13.132813 18.441406-30.222657 18.441406-48.054688 0-27.464844-16.054688-52.488281-40.398438-64.480469.253907-2.472656.398438-4.984375.398438-7.519531 0-39.703125-32.304688-72-72-72-.609375 0-1.207031.105469-1.824219.121094-7.253906-32.082032-35.9375-56.121094-70.175781-56.121094-27.863281 0-52.039062 15.945312-64 39.167969-11.960938-23.214844-36.136719-39.167969-64-39.167969-33.984375 0-62.894531 23.640625-70.199219 56.089844-.601562-.011719-1.191406-.089844-1.800781-.089844-39.695312 0-72 32.296875-72 72 0 2.441406.128906 4.902344.390625 7.375-24.398437 11.984375-40.390625 37.183594-40.390625 64.625 0 18.425781 7.015625 35.199219 18.441406 47.945312-11.785156 13.132813-18.441406 30.222657-18.441406 48.054688 0 27.457031 16.054688 52.488281 40.398438 64.480469zm11.65625-212.746094 6.289062-2.40625-1.289062-6.601563c-.695313-3.589843-1.054688-7.199218-1.054688-10.726562 0-30.871094 25.121094-56 56-56s56 25.128906 56 56h16c0-33.566406-23.128906-61.769531-54.265625-69.695312 6.160156-24.550782 28.289063-42.304688 54.265625-42.304688 30.878906 0 56 25.128906 56 56v32h16v-32c0-30.871094 25.121094-56 56-56s56 25.128906 56 56-25.121094 56-56 56v16c39.695312 0 72-32.296875 72-72 30.878906 0 56 25.128906 56 56s-25.121094 56-56 56v16c31.457031 0 58.199219-20.3125 67.976562-48.488281 17.046876 9.886719 28.023438 28.398437 28.023438 48.488281 0 13.871094-5.175781 27.160156-14.34375 37.382812-11.777344-8.390624-26.128906-13.382812-41.65625-13.382812-39.695312 0-72 32.296875-72 72h16c0-30.871094 25.121094-56 56-56s56 25.128906 56 56c0 23.023438-14.496094 44.03125-36.054688 52.265625l-6.28125 2.398437 1.28125 6.601563c.703126 3.613281 1.054688 7.222656 1.054688 10.734375 0 30.871094-25.121094 56-56 56 0-39.703125-32.304688-72-72-72v16c30.878906 0 56 25.128906 56 56s-25.121094 56-56 56-56-25.128906-56-56v-304h-16v304c0 30.871094-25.121094 56-56 56-25.976562 0-48.105469-17.753906-54.265625-42.304688 31.136719-7.933593 54.265625-36.128906 54.265625-69.695312h-16c0 30.871094-25.121094 56-56 56s-56-25.128906-56-56 25.121094-56 56-56v-16c-31.457031 0-58.199219 20.3125-67.976562 48.480469-17.046876-9.894531-28.023438-28.410157-28.023438-48.480469 0-13.871094 5.175781-27.160156 14.34375-37.382812 11.777344 8.390624 26.128906 13.382812 41.65625 13.382812v-16c-30.878906 0-56-25.128906-56-56 0-23.023438 14.496094-44.03125 36.054688-52.265625zm259.945312-99.734375v-16c22.054688 0 40 17.945312 40 40h-16c0-13.230469-10.769531-24-24-24zm-40 376h16c0 13.230469 10.769531 24 24 24v16c-22.054688 0-40-17.945312-40-40zm152-88v-16c13.230469 0 24-10.769531 24-24h16c0 22.054688-17.945312 40-40 40zm-88-16v16c-26.472656 0-48-21.527344-48-48h16c0 17.648438 14.351562 32 32 32zm-48-112h-16c0-26.472656 21.527344-48 48-48v16c-17.648438 0-32 14.351562-32 32zm-64 112v16c-26.472656 0-48-21.527344-48-48h16c0 17.648438 14.351562 32 32 32zm88-104c0 17.648438 14.351562 32 32 32v16c-26.472656 0-48-21.527344-48-48zm-136-8h-16c0-26.472656 21.527344-48 48-48v16c-17.648438 0-32 14.351562-32 32zm-56 72h-16c0-26.472656 21.527344-48 48-48v16c-17.648438 0-32 14.351562-32 32zm16 88h16c0 22.054688-17.945312 40-40 40v-16c13.230469 0 24-10.769531 24-24zm-88-168h-16c0-22.054688 17.945312-40 40-40v16c-13.230469 0-24 10.769531-24 24zm64-96v-16c22.054688 0 40 17.945312 40 40h-16c0-13.230469-10.769531-24-24-24zm72-56v-16c22.054688 0 40 17.945312 40 40h-16c0-13.230469-10.769531-24-24-24zm0 0" fill="url(#a)"/></svg>