<?xml version="1.0" encoding="utf-8"?>
<!-- Generator: Adobe Illustrator 19.0.0, SVG Export Plug-In . SVG Version: 6.00 Build 0)  -->
<svg version="1.1" id="Layer_1" xmlns="http://www.w3.org/2000/svg" xmlns:xlink="http://www.w3.org/1999/xlink" x="0px" y="0px"
	 viewBox="-49 141 512 512" style="enable-background:new -49 141 512 512;" xml:space="preserve">
<style type="text/css">
	.st0{fill:#B8B7AD;}
</style>
<path d="M248.3,649.7c-2.1,0.3-4.3,0.7-6.4,1C244,650.3,246.1,650,248.3,649.7z"/>
<path d="M253.4,648.8c-1,0.2-2,0.4-3.1,0.5C251.4,649.2,252.4,649,253.4,648.8z"/>
<path d="M236.1,651.3c-2.5,0.3-5,0.5-7.5,0.7C231.1,651.9,233.6,651.6,236.1,651.3z"/>
<path d="M241.1,650.7c-1.2,0.2-2.4,0.3-3.6,0.4C238.6,651,239.9,650.9,241.1,650.7z"/>
<path d="M260.4,647.4c-0.9,0.2-1.8,0.4-2.7,0.6C258.6,647.8,259.5,647.6,260.4,647.4z"/>
<path d="M277.7,643.1c-0.7,0.2-1.5,0.4-2.2,0.6C276.2,643.5,276.9,643.3,277.7,643.1z"/>
<path d="M272.4,644.5c-0.8,0.2-1.6,0.4-2.4,0.6C270.9,645,271.6,644.8,272.4,644.5z"/>
<path d="M265.6,646.3c-0.8,0.2-1.7,0.4-2.5,0.6C263.9,646.6,264.8,646.4,265.6,646.3z"/>
<path d="M228.5,652.1c-1.3,0.1-2.7,0.2-4,0.3C225.8,652.3,227.2,652.2,228.5,652.1z"/>
<path class="st0" d="M463,397c0-141.4-114.6-256-256-256S-49,255.6-49,397S65.6,653,207,653c1.5,0,3,0,4.5-0.1V453.7h-55v-64.1h55
	v-47.2c0-54.7,33.4-84.5,82.2-84.5c23.4,0,43.5,1.7,49.3,2.5v57.2h-33.6c-26.5,0-31.7,12.6-31.7,31.1v40.8h63.5l-8.3,64.1h-55.2
	v189.5C384.7,612.4,463,513.9,463,397z"/>
<path d="M223.9,652.4c-2.7,0.2-5.3,0.3-8,0.4C218.6,652.7,221.3,652.6,223.9,652.4z"/>
<path d="M215.8,652.8c-1.4,0-2.8,0.1-4.3,0.1C212.9,652.9,214.3,652.9,215.8,652.8z"/>
</svg>
