<?xml version="1.0" encoding="utf-8"?>
<!-- Generator: Adobe Illustrator 19.0.0, SVG Export Plug-In . SVG Version: 6.00 Build 0)  -->
<svg version="1.1" id="Layer_1" xmlns="http://www.w3.org/2000/svg" xmlns:xlink="http://www.w3.org/1999/xlink" x="0px" y="0px"
	 viewBox="0 0 612 792" style="enable-background:new 0 0 612 792;" xml:space="preserve">
<style type="text/css">
	.st0{fill:#F2702A;}
	.st1{fill:#F79426;}
	.st2{fill:#1BAAB3;}
	.st3{fill:#E81F3F;}
	.st4{fill:#F79C20;}
	.st5{fill:#FEC216;}
	.st6{fill:#EC1F3D;}
	.st7{fill:#F58223;}
	.st8{fill:#E94659;}
	.st9{fill:#F9B41E;}
	.st10{fill:#EC1D49;}
	.st11{fill:#16B8D2;}
	.st12{fill:#ED7230;}
	.st13{fill:#F1732E;}
	.st14{fill:#03A8CC;}
	.st15{fill:#5AC9E8;}
	.st16{fill:#F7A120;}
	.st17{fill:#8E1B34;}
	.st18{fill:#F17328;}
	.st19{fill:#1CACB7;}
	.st20{fill:#1B8FA5;}
	.st21{fill:#1EA9B1;}
	.st22{fill:#F39A25;}
	.st23{fill:#F18627;}
	.st24{fill:#E82248;}
	.st25{fill:#ED494B;}
	.st26{fill:#F79324;}
	.st27{fill:#F79A23;}
</style>
<path class="st0" d="M44.7,214.4C51.8,176,68.1,141.8,91.9,111c8.7-0.8,17.4-1.2,26-2.4c40.3-5.5,80.5-11.1,120.8-16.9
	c1.8-0.3,3.4-2.6,5-4l0.1,0c21.4-15.4,42.8-30.9,64.2-46.3c13.8-9.9,27.6-19.8,41.4-29.8c-0.5,6.6-0.7,13.2-1.4,19.8
	c-2.3,20-4.8,40-7.2,60c-5.5,3-11,6-16.6,9.1c-0.7,0.8-1.5,1.5-2.2,2.3c0,0,0.2-0.1,0.2-0.1c-3,0.8-6.4,0.9-9,2.4
	c-20.4,11.7-40.7,23.6-61,35.4c-6.1,3.3-12.2,6.6-18.3,10c-39.2,21.9-78.2,43.8-117.5,65.5c-12.7,7-25.9,13.3-38.8,20
	C66.6,228.9,55.7,221.6,44.7,214.4z"/>
<path class="st1" d="M206.2,729.8c0-14.8,0-29.7,0-44.5c4.8-0.7,9.6-1.4,14.3-1.9c13.7-1.7,27.4-3,41-5c15.7-2.3,31.3-6.6,47.1-7.3
	c26.2-1.2,52.5-0.3,78.8-0.3c-0.5,1.2-0.7,2.9-1.7,3.6c-21.6,17-43.3,33.7-64.8,50.7c-10.5,8.3-20.4,17.2-30.6,25.8
	c-2.1,0.7-4.2,1.4-6.3,2.1c-2.8-2.1-5.4-4.8-8.5-6.2c-3.4-1.5-7.4-1.6-11-2.5C245,739.6,225.6,734.7,206.2,729.8z"/>
<path class="st2" d="M363.6,489.1c9.2,36.6,18.4,73.2,27.5,109.8c0.8,3,1.2,6.1,1.9,10.1c-16.9,0-33.5,0-50.2,0
	c-10.3-8-20.7-15.2-30.9-22.9c-14.4-10.9-28.8-21.9-43.1-32.8c1.3-1.9,2.2-4.4,4-5.6c26.4-18.1,52.9-36.2,79.5-54
	C355.5,491.4,359.8,490.6,363.6,489.1z"/>
<path class="st3" d="M412.8,282c1.3,2.2,2.7,4.4,4,6.6c2.5,8.1-0.2,14.5-5,21.1c-4.8,6.5-8.1,14.1-12.5,22.2
	c2.9-0.1,3.8,0.1,4.3-0.2c9.4-5.8,16.6-16.3,29.8-13.8c0,0,0.3-1.3,0.5-1.9c6-16.6,11.9-33.3,18.3-51.3c6.7,4.8,13.6,9.8,20.5,14.8
	c-5.6,5.8-11.2,11.7-18.3,19.1c21,7.5,41,14.6,61,21.8c10.6,17.2,21.4,34.4,31.6,51.9c1.7,3,0.7,7.6,1,11.4
	c-3.1-0.2-6.5,0.1-9.4-0.8c-38.7-12.3-77.2-24.8-115.9-36.9c-3.7-1.2-8.2,0-12.4,0.1c-13.9-8.9-25.2-19.1-24.4-37.9
	c0.4-9.3-1.8-18.7-2.9-28c0.4-2.6,0.8-5.1,1.3-8.6C394.4,275.2,403.6,278.6,412.8,282z"/>
<path class="st4" d="M417.2,28.4c9.8,4.9,19.7,9.9,29.5,14.8c-0.6,0.8-1.9,1.7-1.8,2.4c3.7,29.7,7.6,59.4,11.3,89.1
	c3.3,26.6,6.3,53.3,9.5,79.9c-0.6,0.3-1.2,0.3-1.9,0.1c-16.2-16.9-32.5-33.7-48.5-50.7c-2.9-3.1-4.7-7.4-7-11.1
	c3.7-28.6-6.6-49.5-33.5-61.3c0.7-3.7,0.3-8.3,2.4-11.1C390.1,62.9,403.8,45.7,417.2,28.4z"/>
<path class="st5" d="M290.2,750.9c10.2-8.6,20.2-17.5,30.6-25.8c21.5-17.1,43.3-33.8,64.8-50.7c0.9-0.7,1.1-2.4,1.7-3.6
	c1.3-1.1,2.6-2.2,3.9-3.2c3.8-0.2,7.5-0.3,13-0.6c0,8,0,15.2,0,22.4c0,15.8-0.4,31.6,0.1,47.3c0.5,16.3-5.7,29.1-17.8,39.5
	c-1.7-0.1-3.6,0.2-5.2-0.3C350.9,767.7,320.6,759.3,290.2,750.9z"/>
<path class="st6" d="M463.7,214.7c0.6,0.2,1.3,0.2,1.9-0.1c1.4-1.4,2.8-2.9,4.2-4.3c0.7-0.7,1.3-1.5,2-2.2l0,0
	c4.2-4.1,8.6-8.1,12.6-12.4c18.3-19.7,36.5-39.5,54.7-59.2c14.9,24.1,25.4,49.9,30.1,77.9c-19,13.2-38.1,26.5-57.1,39.7
	c-16.9-11.9-33.8-23.8-50.7-35.6c0-0.7-0.2-1.3-0.5-1.9l0.4-0.3c0.8-0.5,1.5-1,2.3-1.5L463.7,214.7z"/>
<path class="st7" d="M469.7,210.3c-1.4,1.4-2.8,2.9-4.2,4.3c-3.1-26.6-6.2-53.3-9.5-79.9c-3.7-29.7-7.6-59.4-11.3-89.1
	c-0.1-0.7,1.2-1.6,1.8-2.4c29.2,16.8,53.8,38.6,73.6,65.9c-7.2,14.1-14.5,28.2-21.5,42.5c-9.2,18.8-18.1,37.7-27.1,56.5c0,0,0,0,0,0
	C471.1,208.8,470.4,209.6,469.7,210.3z"/>
<path class="st8" d="M398.1,442.4c-1.9-13-3.9-26-6.1-40.8c-4.5,4.9-7.6,8.4-10.8,11.9c0.6-5.4,1.1-10.9,1.7-16.3
	c10.2-15.8,20.3-31.6,30.5-47.4c1.3,2.4,2,5.4,3.9,7.1c10.4,9.1,21.4,17.7,31.8,26.9c15.5,13.8,30.7,28,46.1,42
	c-3.5,1.4-7.1,2.9-10.6,4.3c-12,1.5-24,3-36,4.5c-1.5,0.2-3,0.3-4.5,0.5c-4.2,1.1-8.4,2.2-12.5,3.3
	C420.4,439.7,409.2,441,398.1,442.4z"/>
<path class="st9" d="M408.2,152.9c2.3,3.7,4.1,7.9,7,11.1c16,17.1,32.3,33.9,48.5,50.7c0,0-0.2-0.1-0.2-0.1c-0.8,0.5-1.5,1-2.3,1.5
	c0,0-0.4,0.3-0.4,0.3c-0.6,0.5-1.1,0.9-1.7,1.4c-26.2-12.2-53.3-19.9-83.4-13.9c3.7,2.1,7.3,4.4,11.1,6.3c6.6,3.3,6,6.8,0.4,10.5
	c-8.6-0.1-17.2-0.2-25.7-0.3c0.7-5.9,1.3-11.9,2.2-19.3c-32.3,4.2-63.3,11.7-92.7,25.3c-0.1-0.4-0.2-0.8-0.3-1.3
	c0.4-2.4,0.2-5.3,1.5-7.2c5.1-7.4,10.8-14.4,16.1-21.7c7.8-10.9,15.5-21.9,23.2-32.9c1.1,1.3,2.4,2.5,3.3,3.9
	c15.5,23,42,30,66.9,17.8C395.6,178.4,402.5,166.2,408.2,152.9z"/>
<path class="st7" d="M349.4,11.7c-13.8,9.9-27.6,19.8-41.4,29.8c-21.4,15.4-42.8,30.9-64.2,46.3c-2.1-16.1-3.9-32.3-6.5-48.3
	c-1.3-8-4.1-15.7-6.2-23.5C253.1,6.8,276.6,4.6,300,4.1c17.1-0.4,34.3,2.4,51.4,3.8C350.7,9.2,350,10.5,349.4,11.7z"/>
<path class="st10" d="M495.1,425.8c-15.3-14-30.6-28.2-46.1-42c-10.4-9.2-21.3-17.8-31.8-26.9c-1.9-1.7-2.6-4.7-3.9-7.1
	c-1-1.3-2.1-2.5-3.1-3.8c4.1-0.1,8.6-1.3,12.4-0.1c38.7,12.1,77.3,24.7,115.9,36.9c2.9,0.9,6.2,0.6,9.4,0.8
	c-11.1,19.1-22.2,38.2-33.3,57.3C508.2,435.9,501.6,430.8,495.1,425.8z"/>
<path class="st11" d="M134.4,493.2c-4.3-6.3-8.6-12.6-13-18.9c10.5-14.6,21.1-29.2,31.6-43.8c25.3,0,50.7,0,76,0.1
	c2.8,11,5.5,22,8.3,32.9c-2.7,1.5-5.5,3-8.2,4.4c-3.5,0.1-7.2-0.5-10.5,0.4C190.5,476.5,162.5,484.9,134.4,493.2z"/>
<path class="st12" d="M268.7,553.2c14.4,11,28.7,22,43.1,32.8c10.2,7.7,20.6,15.3,30.9,22.9c-47.4,0.1-94.8,0.3-142.2,0.3
	c-2.4,0-4.8-1.8-7.2-2.7c1-2.1,1.4-4.8,2.9-6.2c10.5-9.2,21.2-18.2,31.8-27.2c12.3-6.9,24.6-13.8,36.9-20.7
	C266.2,552.7,267.5,553,268.7,553.2z"/>
<path class="st13" d="M401.5,651.1c-4,0.8-8,2.4-12,2.4c-57.2,0.2-114.5-0.1-171.7,0.3c-10.2,0.1-12.2-3.9-12.4-13.1
	c-0.1-9.6,2.5-12.7,12.5-12.6c52,0.6,103.9,0.5,155.9,0.6C383,636.2,392.3,643.6,401.5,651.1z"/>
<path class="st14" d="M87.9,423.5c-10.8-21-21.6-42-32.4-63c2.7-2.5,5.2-5.5,8.3-7.6c12.7-8.3,25.7-16.4,38.5-24.5
	c1.3,0.1,2.6,0.3,3.9,0.4c5.1,18.2,10.2,36.3,15.4,54.4c0.3,1,2.1,1.6,3.2,2.3c0.8,13.4,1.6,26.7,2.3,40.1c0,0,0.1,0.2,0.1,0.2
	c0.2,1.3,0.4,2.5,0.6,3.8C114.6,427.7,101.2,425.6,87.9,423.5z"/>
<path class="st15" d="M431.5,438.4c4.2-1.1,8.4-2.2,12.5-3.3c-3.8,25.2-7.6,50.4-11.5,75.6c-5.2,32.8-10.5,65.3-15.7,98.3
	c-5.1,0-10.3,0-16,0c7.5-51,1.6-100-0.8-149.5C410.5,452.5,421,445.4,431.5,438.4z"/>
<path class="st16" d="M231.1,15.9c2.1,7.8,4.9,15.6,6.2,23.5c2.6,16,4.4,32.2,6.5,48.3c0,0-0.1,0-0.1,0
	c-21.6-4.8-43.2-9.4-64.7-14.5c-13.1-3.1-26-7.2-38.9-10.9c21.5-19.5,47.2-31.7,73.9-42C219.4,18.2,225.4,17.3,231.1,15.9z"/>
<path class="st17" d="M512.1,254.1c19-13.2,38.1-26.5,57.1-39.7c8.6,30.1,8.8,60.7,4.9,91.3c-1.5,12.2-6,24.1-9.1,36.2
	c-3.1-1.5-6.3-3.1-9.4-4.6C550.6,304.5,534.1,277.8,512.1,254.1z"/>
<path class="st18" d="M270.8,225.2c0.1,0.4,0.2,0.8,0.3,1.3c-8.3,4.5-16.6,9-24.9,13.5c-18.3,11.1-36.6,22.2-55,33.2
	c-1.4,0.2-2.8,0.4-4.3,0.5c-2-1.3-3.9-3.1-6.1-3.8c-22.6-7.2-45.1-14.3-67.8-21.2c-10.5-3.2-21.2-6-31.9-8.9c1.5-0.7,3-1.9,4.6-2.1
	c26.4-2.2,52.7-4.6,79.1-6.2c31-1.9,62-2.9,93.1-4.5c2.3-0.1,4.6-1.3,7-2C266.8,225.1,268.8,225.1,270.8,225.2z"/>
<path class="st16" d="M349.4,11.7c0.7-1.3,1.4-2.6,2-3.8c22.8,4,45.4,8.8,65.8,20.5c-13.5,17.3-27.1,34.5-40.2,52.1
	c-2.1,2.8-1.6,7.3-2.4,11.1c-11.3,0-22.6,0-33.9,0c2.4-20,4.9-40,7.2-60C348.7,24.9,348.9,18.3,349.4,11.7z"/>
<path class="st19" d="M233.1,303.2c3.5-2.6,7-5.3,10.5-7.9c17.5,26.6,35.1,53.2,52.6,79.8c-2.1,6.3-4.1,12.5-6.2,18.8
	c-11.3-2.1-22.5-4.2-33.8-6.1c-6.2-1-8.5,1.8-8.5,8.2c0,9.9-1,19.9-1.6,29.8c0-16.5,0.1-33-0.1-49.4c-0.1-6.1-1.2-12.2-1.8-18.4
	c-0.4-0.3-0.5-0.7-0.4-1.1c-9.2-1.5-18.5-2.9-28.8-4.6C221,336.2,227.1,319.7,233.1,303.2z"/>
<path class="st20" d="M106.3,328.9c-1.3-0.1-2.6-0.3-3.9-0.4c-4.6-1.4-9-3.2-13.7-4.1c-15.7-3-31.4-5.6-47.1-8.4
	c-0.9-7.8-1.8-15.6-2.7-23.4c-0.1-1.1-0.1-2.3-0.2-3.4c-0.2-2.4-0.5-4.9-0.7-7.3c0,0,0.4-0.9,0.4-0.9l-0.6-0.8
	c0.2-5.1,0.5-10.2,0.7-15.4c13.1-8.3,26.3-16.6,39.4-24.8l1-0.1c0,1.1-0.2,2.2,0.1,3.1c7.5,24.7,14.9,49.4,22.7,74
	c1,3,4.4,5.3,6.7,7.9C107.7,326.3,107,327.6,106.3,328.9z"/>
<path class="st21" d="M416.8,608.9c5.2-32.8,10.6-65.5,15.7-98.3c4-25.2,7.7-50.4,11.5-75.5c1.5-0.2,3-0.3,4.5-0.5
	c4.1,11.5,7.8,23.2,12.4,34.5c4.3,10.4,9.6,20.4,14.4,30.6c-21.6,33.9-44.2,67.2-54.7,106.8C420.4,607.5,418.1,608.1,416.8,608.9z"
	/>
<path class="st1" d="M140.1,62.3c13,3.7,25.8,7.7,38.9,10.9c21.5,5.2,43.1,9.7,64.7,14.5c-1.7,1.4-3.2,3.8-5,4
	c-40.2,5.8-80.5,11.4-120.8,16.9c-8.6,1.2-17.3,1.6-26,2.4C108,94.8,124,78.6,140.1,62.3z"/>
<path class="st22" d="M229.1,468c2.7-1.5,5.5-3,8.2-4.4c0.5,0.3,1.1,0.5,1.7,0.4c2.5,8.2,4.9,16.4,7.4,24.6c-10,17-20.1,34-30.1,51
	c-0.4-1-0.5-2.6-1.1-2.8c-20.2-6.3-40.5-12.4-60.8-18.5c10.1-7,20.2-14,30.4-20.9C199.5,487.6,214.4,477.8,229.1,468z"/>
<path class="st23" d="M290.2,750.9c30.4,8.3,60.7,16.7,91.1,25c1.6,0.4,3.5,0.2,5.2,0.3c-6.2,8.9-16.1,9.8-25.3,10
	c-37.5,0.5-75,0.2-112.5,0.1c-1.6,0-3.3-1-4.9-1.6c13.4-10.5,26.7-21.1,40.1-31.6C286,752.4,288.1,751.7,290.2,750.9z"/>
<path class="st11" d="M106.3,328.9c0.7-1.3,1.5-2.6,2.2-4c0.8-0.2,1.5-0.4,2.3-0.6c2.1-0.1,4.3,0.1,6.2-0.4
	c22.5-6.1,45-12.4,67.5-18.6c-1.6,5.6-3.1,11.2-4.7,16.8c-1.8,10.3-3.6,20.5-5.6,31.6c-12.3,0-24.9-0.3-37.4,0.2
	c-3.1,0.1-6.2,2.6-9.3,4.1c0,0-0.1,0.1-0.1,0.1c-0.8,9.2-1.7,18.4-2.5,27.6c-1.1-0.8-2.9-1.3-3.2-2.3
	C116.4,365.2,111.4,347.1,106.3,328.9z"/>
<path class="st16" d="M283.9,753.1c-13.4,10.5-26.7,21.1-40.1,31.6c-18.6,1-36.6-19.2-37.9-40.2c-0.3-4.9,0.2-9.8,0.3-14.7
	c19.4,4.9,38.8,9.7,58.2,14.6c3.7,0.9,7.6,1.1,11,2.5C278.5,748.3,281.1,751,283.9,753.1z"/>
<path class="st14" d="M239,464c-0.6,0-1.2-0.1-1.7-0.4c-2.8-11-5.5-22-8.3-32.9c5.7-1.6,11.4-3.2,17.1-4.9
	c0.6-9.9,1.6-19.9,1.6-29.8c0-6.4,2.3-9.2,8.5-8.2c11.3,1.9,22.5,4.1,33.8,6.1c-8.5,19.6-16.9,39.2-25.4,58.8
	c-1.4-0.9-3.4-2.9-3.9-2.5c-6.5,4.3-12.8,8.9-19.2,13.5C240.8,463.8,239.9,463.9,239,464z"/>
<path class="st24" d="M296.3,375c-17.5-26.6-35.1-53.2-52.6-79.8c1.6-1,3.3-1.9,4.9-2.9c12.9,3.6,26.6,5.8,38.6,11.5
	c7.3,3.5,18.8-0.7,22,10.8C304.9,334.8,300.6,354.9,296.3,375z"/>
<path class="st20" d="M268.7,553.2c-1.3-0.3-2.5-0.6-3.8-0.8c-1.3-4-2.6-8.1-4-12.1c18.3-20,36.6-40,54.9-60c4-0.3,8.2-1.2,12.1-0.7
	c11.4,1.4,22.6,3.4,34,5.2c0.5,1.4,1.1,2.9,1.6,4.3c-3.8,1.5-8,2.4-11.4,4.6c-26.6,17.8-53.1,35.8-79.5,54
	C270.9,548.8,270,551.3,268.7,553.2z"/>
<path class="st20" d="M475.4,499.6c-4.8-10.2-10.1-20.2-14.4-30.6c-4.6-11.3-8.3-23-12.4-34.5c12-1.5,24-3,36-4.5
	c1.4,16.6,2.8,33.2,4.2,49.9C484.3,486.5,479.8,493.1,475.4,499.6z"/>
<path class="st25" d="M471.7,208.1c9-18.8,17.9-37.8,27.1-56.5c7-14.2,14.3-28.3,21.5-42.5c6.2,9.1,12.5,18.2,18.7,27.4
	c-18.2,19.7-36.4,39.5-54.7,59.2C480.3,200,475.9,204,471.7,208.1z"/>
<path class="st21" d="M229.1,468c-14.8,9.8-29.6,19.6-44.4,29.5c-10.2,6.9-20.3,13.9-30.4,20.9c-1.1,0-2.2,0-3.3,0
	c-5.6-8.4-11.1-16.8-16.7-25.2c28.1-8.3,56.2-16.7,84.3-24.9C221.9,467.4,225.6,468.1,229.1,468z"/>
<path class="st12" d="M391.3,667c-1.3,1-2.6,2.4-3.9,3.5c-26.3,0-52.6-0.8-78.8,0.4c-15.8,0.7-31.4,5.1-47.1,7.4
	c-13.6,2-26.9,3.4-40.6,5c-4.8,0.6-9.9,1.3-13.9,2c0-5.5,0-11.3,0-18.3C269,667,329.8,667,391.3,667z"/>
<path class="st18" d="M151.1,518.4c1.1,0,2.2,0,3.3,0c20.3,6.1,40.5,12.2,60.8,18.5c0.6,0.2,0.8,1.9,1.1,2.8
	c-3.6,5.6-7.3,11.3-11,16.9c-10,0.9-20,1.7-30.1,2.6C167.2,545.6,159.1,532,151.1,518.4z"/>
<path class="st21" d="M184.5,305.3c-22.5,6.2-45,12.5-67.5,18.6c-2,0.5-4.1,0.3-6.2,0.4c8.3-5.7,16.5-11.4,24.9-17
	c17-11.3,34.2-22.5,51.3-33.7c1.4-0.2,2.8-0.4,4.3-0.5c3.5,1.6,7,3.1,10.4,4.7C195.9,287.1,190.2,296.2,184.5,305.3z"/>
<path class="st11" d="M41.5,316c15.7,2.8,31.4,5.4,47.1,8.4c4.7,0.9,9.1,2.7,13.7,4.1c-12.9,8.1-25.8,16.2-38.5,24.5
	c-3.1,2-5.5,5-8.3,7.6C50.9,345.7,46.2,330.8,41.5,316z"/>
<path class="st25" d="M361.6,220.5c8.6,0.1,17.2,0.2,25.7,0.3c-4.7,15,4.8,25.4,11.6,36.8c4.8,8,9.3,16.3,13.9,24.4
	c-9.2-3.4-18.4-6.8-28.5-10.5c-0.5,3.5-0.9,6-1.3,8.6c-1.4-8.6-3.5-17.2-4-25.9c-0.6-11.5-4.1-19.9-15.9-23.9
	C358.1,228.6,355.4,224.8,361.6,220.5z"/>
<path class="st11" d="M362,484.7c-11.3-1.8-22.6-3.8-34-5.2c-4-0.5-8.1,0.4-12.1,0.7c13.7-16.6,27.4-33.3,41.1-49.9
	c1.9,2.8,3.8,5.5,5.7,8.3c-12.6,11.4-10.4,24-3.2,37.2C360.9,478.4,361.2,481.7,362,484.7z"/>
<path class="st21" d="M78,239.9c-13.1,8.3-26.3,16.6-39.4,24.8c2.1-16.8,4.1-33.6,6.2-50.3c11,7.2,21.9,14.5,32.9,21.7
	C77.7,237.4,77.8,238.6,78,239.9z"/>
<path class="st12" d="M309.2,314.7c-3.2-11.6-14.8-7.4-22-10.8c-12-5.7-25.6-7.8-38.6-11.5c12-7.2,24.9-11,38.9-8.8
	C307.4,286.7,312.5,294.4,309.2,314.7z"/>
<path class="st17" d="M515.4,320.3c-20-7.2-40.1-14.3-61-21.8c7.1-7.4,12.7-13.2,18.3-19.1C486.9,293.1,501.2,306.7,515.4,320.3z"/>
<path class="st14" d="M488.7,480c-1.4-16.6-2.8-33.2-4.2-49.9c3.5-1.4,7.1-2.9,10.6-4.3c6.5,5,13.1,10,19.6,15.1
	C506,453.9,497.4,466.9,488.7,480z"/>
<path class="st21" d="M233.1,303.2c-6.1,16.5-12.1,33-18,49.1c10.3,1.6,19.5,3.1,28.8,4.6c-16.6-0.7-33.2-1.5-51.3-2.3
	C203.5,334.5,215.1,316.4,233.1,303.2z"/>
<path class="st21" d="M153,430.5c-10.5,14.6-21.1,29.2-31.6,43.8c-2.3-3.5-4.6-7-6.9-10.5c9.1-5.4,10.2-14.5,10.8-23.8
	c2-1.3,4.1-2.6,6.1-4c2.2-2,4.4-4,6.6-6c0.8-0.1,1.6-0.2,2.4-0.3C144.6,430,148.8,430.3,153,430.5z"/>
<path class="st24" d="M433.8,315.9c-0.2,0.7-0.4,1.9-0.5,1.9c-13.2-2.4-20.5,8-29.8,13.8c-0.5,0.3-1.3,0.1-4.3,0.2
	c4.5-8.1,7.7-15.7,12.5-22.2c4.9-6.6,7.6-13,5-21.1C422.5,297.7,428.2,306.8,433.8,315.9z"/>
<path class="st1" d="M175.3,559.2c10-0.9,20-1.7,30.1-2.6c-4.4,7-8.8,14-13.3,20.9c-1.3,2-3,3.6-5.8,6.8
	C182.3,575.2,178.8,567.2,175.3,559.2z"/>
<path class="st21" d="M401.5,651.1c-9.2-7.5-18.5-14.9-27.7-22.4c4.8,0,9.7,0,14.5,0C404.5,628.7,408.5,635.4,401.5,651.1z"/>
<path class="st24" d="M362.7,438.6c-1.9-2.8-3.8-5.5-5.7-8.3c8.7-11,17.3-22.1,26-33.1c-0.6,5.4-1.1,10.9-1.7,16.3
	C375.1,421.8,368.9,430.2,362.7,438.6z"/>
<path class="st25" d="M201.6,277.9c-3.5-1.6-7-3.1-10.4-4.7c18.3-11.1,36.6-22.2,55-33.2C231.3,252.6,216.4,265.3,201.6,277.9z"/>
<path class="st19" d="M431.5,438.4c-10.5,7-21,14.1-31.5,21.1c-0.6-5.7-1.3-11.4-1.9-17.1C409.2,441,420.4,439.7,431.5,438.4z"/>
<path class="st1" d="M261,540.3c1.3,4,2.6,8.1,4,12.1c-12.3,6.9-24.6,13.8-36.9,20.7C239,562.2,250,551.2,261,540.3z"/>
<path class="st15" d="M153,430.5c-4.2-0.3-8.4-0.5-12.6-0.8c24.9-0.3,49.8-0.8,74.7-0.9c29.3-0.2,29.3,0,29.3-29.7
	c0-13.7-0.1-27.4-0.1-41.1c0.6,6.1,1.7,12.2,1.8,18.4c0.3,16.5,0.1,32.9,0.1,49.4c-5.7,1.6-11.4,3.2-17.1,4.9
	C203.7,430.6,178.4,430.6,153,430.5z"/>
<path class="st11" d="M138,430.1c-2.2,2-4.4,4-6.6,6c-3.3-0.6-6.5-1.8-9.8-1.7c-8.6,0.3-17.2,1.2-25.7,1.9c-2.7-4.2-5.3-8.5-8-12.7
	c13.4,2.1,26.7,4.2,40,6.3c2.7,0,5.4,0,8.1,0C136.7,429.7,137.4,429.8,138,430.1z"/>
<path class="st15" d="M95.9,436.3c8.6-0.7,17.1-1.6,25.7-1.9c3.2-0.1,6.5,1.1,9.8,1.7c-2.1,1.3-4.1,2.6-6.1,4
	c-6.5,3.8-12.9,7.6-19.4,11.3C102.6,446.4,99.2,441.3,95.9,436.3z"/>
<path class="st20" d="M239,464c0.9-0.1,1.7-0.2,2.6-0.3c5.9,0.1,11.8,0.2,17.6,0.3c-4.3,8.2-8.6,16.4-12.8,24.6
	C243.9,480.4,241.5,472.2,239,464z"/>
<path class="st19" d="M105.9,451.4c6.5-3.8,12.9-7.6,19.4-11.3c-0.6,9.3-1.7,18.3-10.8,23.8C111.6,459.7,108.8,455.5,105.9,451.4z"
	/>
<path class="st15" d="M127.5,358c3.1-1.4,6.1-4,9.3-4.1c12.5-0.5,25.1-0.2,37.4-0.2c2-11.1,3.8-21.4,5.6-31.6
	c-0.1,9.4-0.1,18.8-0.2,28.1c0,8.8-6.7,6.3-11.4,6.5C154.6,357.3,141.1,357.6,127.5,358z"/>
<path class="st24" d="M556,337.2c3,1.5,6.1,3.1,9.2,4.6c-2.2,7.3-4.4,14.5-6.6,21.8c-0.9-0.2-1.6-0.4-2.6-0.6
	C556,354.4,556,345.8,556,337.2z"/>
<path class="st11" d="M259.2,464c-5.9-0.1-11.8-0.2-17.6-0.3c6.4-4.6,12.6-9.2,19.2-13.5c0.5-0.4,2.6,1.6,3.9,2.5
	C262.9,456.5,261.1,460.2,259.2,464z"/>
<path class="st15" d="M124.9,385.7c0.8-9.2,1.7-18.4,2.5-27.6c-0.1,22.6-0.1,45.1-0.2,67.7C126.4,412.4,125.7,399.1,124.9,385.7z"/>
<path class="st15" d="M136,429.8c-2.7,0-5.4,0-8.1,0c-0.2-1.3-0.4-2.5-0.6-3.8C130.2,427.3,133.1,428.5,136,429.8z"/>
<path class="st21" d="M38.6,289.2c0.1,1.1,0.1,2.3,0.2,3.4C38.8,291.4,38.7,290.3,38.6,289.2z"/>
<path class="st21" d="M37.8,280.1l0.6,0.8c0,0-0.4,0.9-0.4,0.9C37.4,281.3,37.4,280.7,37.8,280.1z"/>
<path class="st4" d="M459.2,218c0.6-0.5,1.1-0.9,1.7-1.4c0.3,0.6,0.5,1.2,0.5,1.9C460.6,218.3,459.9,218.1,459.2,218z"/>
<path class="st26" d="M78,239.9c-0.1-1.3-0.2-2.5-0.3-3.8c12.9-6.6,26.1-13,38.8-20c39.2-21.7,78.3-43.7,117.5-65.5
	c6.1-3.4,12.2-6.7,18.3-10c1.8,12.7,3.4,25.5,5.4,38.1c2.3,15.5,4.9,30.9,7.3,46.3c-2.3,0.7-4.6,1.9-7,2c-31,1.5-62.1,2.6-93.1,4.5
	c-26.4,1.6-52.8,4-79.1,6.2c-1.6,0.1-3,1.4-4.6,2.1c-0.7,0-1.4,0-2.2,0L78,239.9z"/>
<path class="st27" d="M264.8,225c-2.5-15.4-5-30.9-7.3-46.3c-1.9-12.7-3.6-25.4-5.4-38.1c20.3-11.8,40.6-23.7,61-35.4
	c2.6-1.5,6-1.6,9-2.4c-15.8,18.1-19.3,38.3-10.6,60.7c-7.7,11-15.4,22-23.2,32.9c-5.3,7.3-11,14.3-16.1,21.7c-1.3,1.9-1,4.8-1.5,7.2
	C268.8,225.1,266.8,225.1,264.8,225z"/>
<path class="st27" d="M324.2,100.6c-0.7,0.8-1.5,1.5-2.2,2.3C322.8,102.1,323.5,101.4,324.2,100.6z"/>
<path class="st4" d="M461.2,216.2c0.8-0.5,1.5-1,2.3-1.5C462.8,215.2,462,215.7,461.2,216.2z"/>
<path class="st25" d="M469.7,210.3c0.7-0.7,1.3-1.5,2-2.2C471.1,208.8,470.4,209.6,469.7,210.3z"/>
<path class="st22" d="M79,239.8c0.7,0,1.4,0,2.2,0c10.6,3,21.3,5.7,31.9,8.9c22.6,6.9,45.2,14,67.8,21.2c2.2,0.7,4.1,2.5,6.1,3.8
	c-17.1,11.2-34.2,22.4-51.2,33.7c-8.4,5.5-16.6,11.3-24.9,17c-0.8,0.2-1.5,0.4-2.3,0.6c-2.3-2.6-5.7-4.9-6.7-7.9
	c-7.8-24.6-15.2-49.3-22.7-74C78.8,242,79,240.9,79,239.8z"/>
</svg>
