<svg height="512pt" viewBox="0 -40 512.00663 512" width="512pt" xmlns="http://www.w3.org/2000/svg"><path d="m80 336.003906v16h-48v-64h48zm0 0" fill="#94c1ff"/><path d="m208 87.765625-24 16.238281v-24c0-35.359375 28.640625-64 64-64h48v32c17.679688 0 32 14.320313 32 32v24l-24-16.238281s-16.078125 8-44 8-52-8-52-8zm0 0" fill="#94c1ff"/><path d="m296 48.003906v-32h-32v48c17.679688 0 32 6.320313 32 24v2.722656c5.144531-1.59375 8-2.960937 8-2.960937l24 16.238281v-24c0-17.679687-14.320312-32-32-32zm0 0" fill="#5c9eff"/><path d="m328 104.246094v31.757812c0 28.242188-16.320312 52.722656-40 64.480469-9.601562 4.800781-20.558594 7.519531-32 7.519531s-22.398438-2.71875-32-7.519531c-23.679688-11.757813-40-36.230469-40-64.480469v-31.757812l24-16.242188s24.078125 8 52 8 44-8 44-8zm0 0" fill="#d7e9ff"/><path d="m304 88.003906s-2.855469 1.371094-8 2.953125v45.046875c0 28.242188-16.320312 52.722656-40 64.480469-5 2.503906-10.382812 4.410156-16 5.6875 5.167969 1.179687 10.519531 1.832031 16 1.832031 11.441406 0 22.398438-2.71875 32-7.519531 23.679688-11.757813 40-36.230469 40-64.480469v-31.757812zm0 0" fill="#94c1ff"/><path d="m80 164.003906v4c0 30.960938 25.039062 56 56 56h80c-28.238281 0-52.71875 16.320313-64.480469 40h-15.519531c-53.039062 0-96-42.957031-96-96v-4c0-11.039062 8.960938-20 20-20s20 8.960938 20 20zm0 0" fill="#94c1ff"/><path d="m40 32.003906-16-24h64l-16 24zm0 0" fill="#d7e9ff"/><path d="m104 8.003906v112h-96v-112h16l16 24h32l16-24zm0 0" fill="#94c1ff"/><path d="m504 32.003906v72l-42-36zm0 0" fill="#d7e9ff"/><path d="m434 68.003906-42 36v-72zm0 0" fill="#d7e9ff"/><path d="m504 32.003906-56 48-56-48zm0 0" fill="#d7e9ff"/><path d="m448 80.003906 14-12 42 36h-112l42-36zm0 0" fill="#d7e9ff"/><path d="m424 280.003906h48v72h-48zm0 0" fill="#94c1ff"/><path d="m472 164.003906v4c0 53.042969-42.960938 96-96 96h-15.519531c-11.761719-23.679687-36.234375-40-64.480469-40h80c30.960938 0 56-25.039062 56-56v-4c0-11.039062 8.960938-20 20-20s20 8.960938 20 20zm0 0" fill="#94c1ff"/><path d="m256 208.003906c11.441406 0 22.398438-2.71875 32-7.519531v23.519531l-16 16-16-8-16 8-16-16v-23.519531c9.601562 4.800781 20.558594 7.519531 32 7.519531zm0 0" fill="#fff"/><path d="m224 224.003906 16 16 16-8 16 8 16-16h8c28.238281 0 52.71875 16.320313 64.480469 40 4.800781 9.601563 7.519531 20.480469 7.519531 32v16c0 35.363282 28.640625 64 64 64h4c11.039062 0 20 8.960938 20 20 0 11.042969-8.960938 20-20 20h-4c-57.519531 0-104-46.476562-104-104v112h-144v-112c0 57.523438-46.480469 104-104 104h-4c-11.039062 0-20-8.957031-20-20 0-11.039062 8.960938-20 20-20h4c35.359375 0 64-28.636718 64-64v-16c0-11.519531 2.71875-22.398437 7.519531-32 11.761719-23.679687 36.234375-40 64.480469-40zm0 0" fill="#d7e9ff"/><g fill="#116fff"><path d="m256.238281 288.003906c-4.421875 0-8.039062-3.574218-8.039062-8 0-4.421875 3.535156-8 7.953125-8h.085937c4.417969 0 8 3.578125 8 8 0 4.425782-3.582031 8-8 8zm0 0"/><path d="m256.238281 328.003906c-4.421875 0-8.039062-3.574218-8.039062-8 0-4.421875 3.535156-8 7.953125-8h.085937c4.417969 0 8 3.578125 8 8 0 4.425782-3.582031 8-8 8zm0 0"/><path d="m256.238281 368.003906c-4.421875 0-8.039062-3.574218-8.039062-8 0-4.421875 3.535156-8 7.953125-8h.085937c4.417969 0 8 3.578125 8 8 0 4.425782-3.582031 8-8 8zm0 0"/><path d="m256.238281 408.003906c-4.421875 0-8.039062-3.574218-8.039062-8 0-4.421875 3.535156-8 7.953125-8h.085937c4.417969 0 8 3.578125 8 8 0 4.425782-3.582031 8-8 8zm0 0"/><path d="m448.238281 344.003906c-4.421875 0-8.039062-3.574218-8.039062-8 0-4.421875 3.535156-8 7.953125-8h.085937c4.417969 0 8 3.578125 8 8 0 4.425782-3.582031 8-8 8zm0 0"/><path d="m256 216.003906c-44.113281 0-80-35.886718-80-80 0-4.421875 3.574219-8 8-8s8 3.578125 8 8c0 35.289063 28.710938 64 64 64s64-28.710937 64-64c0-4.421875 3.574219-8 8-8s8 3.578125 8 8c0 44.113282-35.886719 80-80 80zm0 0"/><path d="m184 144.003906c-4.425781 0-8-3.574218-8-8v-56c0-4.421875 3.574219-8 8-8s8 3.578125 8 8v56c0 4.425782-3.574219 8-8 8zm0 0"/><path d="m328 144.003906c-4.425781 0-8-3.574218-8-8v-56.007812c0-4.421875 3.574219-8 8-8s8 3.578125 8 8v56.007812c0 4.425782-3.574219 8-8 8zm0 0"/><path d="m80 384.003906c-4.425781 0-8-3.574218-8-8 0-4.421875 3.574219-8 8-8 30.871094 0 56-25.125 56-56 0-4.421875 3.574219-8 8-8s8 3.578125 8 8c0 39.707032-32.296875 72-72 72zm0 0"/><path d="m144 304.003906c-4.425781 0-8-3.574218-8-8 0-44.109375 35.886719-79.988281 80-79.988281 4.425781 0 8 3.574219 8 8 0 4.421875-3.574219 8-8 8-35.289062 0-64 28.703125-64 63.988281 0 4.425782-3.574219 8-8 8zm0 0"/><path d="m80 424.003906c-4.425781 0-8-3.574218-8-8 0-4.421875 3.574219-8 8-8 52.9375 0 96-43.0625 96-96 0-4.421875 3.574219-8 8-8s8 3.578125 8 8c0 61.761719-50.238281 112-112 112zm0 0"/><path d="m76 424.003906c-15.441406 0-28-12.558594-28-28 0-15.4375 12.558594-28 28-28 4.425781 0 8 3.578125 8 8 0 4.425782-3.574219 8-8 8-6.617188 0-12 5.386719-12 12 0 6.617188 5.382812 12 12 12 4.425781 0 8 3.578125 8 8 0 4.425782-3.574219 8-8 8zm0 0"/><path d="m144 320.003906c-4.425781 0-8-3.574218-8-8v-16c0-4.421875 3.574219-8 8-8s8 3.578125 8 8v16c0 4.425782-3.574219 8-8 8zm0 0"/><path d="m184 432.003906c-4.425781 0-8-3.574218-8-8v-112c0-4.421875 3.574219-8 8-8s8 3.578125 8 8v112c0 4.425782-3.574219 8-8 8zm0 0"/><path d="m80 424.003906h-4c-4.425781 0-8-3.574218-8-8 0-4.421875 3.574219-8 8-8h4c4.425781 0 8 3.578125 8 8 0 4.425782-3.574219 8-8 8zm0 0"/><path d="m80 384.003906h-4c-4.425781 0-8-3.574218-8-8 0-4.421875 3.574219-8 8-8h4c4.425781 0 8 3.578125 8 8 0 4.425782-3.574219 8-8 8zm0 0"/><path d="m432 384.003906c-39.703125 0-72-32.292968-72-72 0-4.421875 3.574219-8 8-8s8 3.578125 8 8c0 30.875 25.128906 56 56 56 4.425781 0 8 3.578125 8 8 0 4.425782-3.574219 8-8 8zm0 0"/><path d="m368 304.003906c-4.425781 0-8-3.574218-8-8 0-35.285156-28.710938-63.988281-64-63.988281-4.425781 0-8-3.578125-8-8 0-4.425781 3.574219-8 8-8 44.113281 0 80 35.878906 80 79.988281 0 4.425782-3.574219 8-8 8zm0 0"/><path d="m432 424.003906c-61.761719 0-112-50.238281-112-112 0-4.421875 3.574219-8 8-8s8 3.578125 8 8c0 52.9375 43.0625 96 96 96 4.425781 0 8 3.578125 8 8 0 4.425782-3.574219 8-8 8zm0 0"/><path d="m436 424.003906c-4.425781 0-8-3.574218-8-8 0-4.421875 3.574219-8 8-8 6.617188 0 12-5.382812 12-12 0-6.613281-5.382812-12-12-12-4.425781 0-8-3.574218-8-8 0-4.421875 3.574219-8 8-8 15.441406 0 28 12.5625 28 28 0 15.441406-12.558594 28-28 28zm0 0"/><path d="m368 320.003906c-4.425781 0-8-3.574218-8-8v-16c0-4.421875 3.574219-8 8-8s8 3.578125 8 8v16c0 4.425782-3.574219 8-8 8zm0 0"/><path d="m328 432.003906c-4.425781 0-8-3.574218-8-8v-112c0-4.421875 3.574219-8 8-8s8 3.578125 8 8v112c0 4.425782-3.574219 8-8 8zm0 0"/><path d="m436 424.003906h-4c-4.425781 0-8-3.574218-8-8 0-4.421875 3.574219-8 8-8h4c4.425781 0 8 3.578125 8 8 0 4.425782-3.574219 8-8 8zm0 0"/><path d="m436 384.003906h-4c-4.425781 0-8-3.574218-8-8 0-4.421875 3.574219-8 8-8h4c4.425781 0 8 3.578125 8 8 0 4.425782-3.574219 8-8 8zm0 0"/><path d="m328 432.003906c-4.425781 0-8-3.574218-8-8v-112c0-4.421875 3.574219-8 8-8s8 3.578125 8 8v112c0 4.425782-3.574219 8-8 8zm0 0"/><path d="m272 248.003906c-2.046875 0-4.097656-.78125-5.65625-2.34375-3.128906-3.125-3.128906-8.183594 0-11.308594l16-16c3.128906-3.128906 8.183594-3.128906 11.3125 0 3.128906 3.125 3.128906 8.183594 0 11.308594l-16 16c-1.558594 1.5625-3.609375 2.34375-5.65625 2.34375zm0 0"/><path d="m271.992188 248.003906c-1.199219 0-2.425782-.269531-3.566407-.839844l-16-8c-3.953125-1.972656-5.554687-6.78125-3.578125-10.734374 1.984375-3.953126 6.792969-5.535157 10.738282-3.574219l16 8c3.949218 1.972656 5.550781 6.78125 3.574218 10.734375-1.40625 2.800781-4.230468 4.414062-7.167968 4.414062zm0 0"/><path d="m240.007812 248.003906c-2.9375 0-5.761718-1.613281-7.167968-4.421875-1.976563-3.953125-.375-8.761719 3.574218-10.734375l16-8c3.945313-1.960937 8.753907-.378906 10.738282 3.574219 1.976562 3.953125.375 8.761719-3.578125 10.734375l-16 8c-1.140625.578125-2.367188.847656-3.566407.847656zm0 0"/><path d="m240 248.003906c-2.046875 0-4.097656-.78125-5.65625-2.34375l-16-16c-3.128906-3.125-3.128906-8.183594 0-11.308594 3.128906-3.128906 8.183594-3.128906 11.3125 0l16 16c3.128906 3.125 3.128906 8.183594 0 11.308594-1.558594 1.5625-3.609375 2.34375-5.65625 2.34375zm0 0"/><path d="m224 232.003906c-4.425781 0-8-3.574218-8-8v-23.492187c0-4.425781 3.574219-8 8-8s8 3.574219 8 8v23.492187c0 4.425782-3.574219 8-8 8zm0 0"/><path d="m288 232.003906c-4.425781 0-8-3.574218-8-8v-23.492187c0-4.425781 3.574219-8 8-8s8 3.574219 8 8v23.492187c0 4.425782-3.574219 8-8 8zm0 0"/><path d="m376 232.003906c-4.425781 0-8-3.574218-8-8 0-4.421875 3.574219-8 8-8 26.472656 0 48-21.527344 48-48 0-4.421875 3.574219-8 8-8s8 3.578125 8 8c0 35.289063-28.710938 64-64 64zm0 0"/><path d="m376 272.003906c-4.425781 0-8-3.574218-8-8 0-4.421875 3.574219-8 8-8 48.519531 0 88-39.476562 88-88 0-4.421875 3.574219-8 8-8s8 3.578125 8 8c0 57.347656-46.65625 104-104 104zm0 0"/><path d="m472 172.003906c-4.425781 0-8-3.574218-8-8 0-6.613281-5.382812-12-12-12s-12 5.386719-12 12c0 4.425782-3.574219 8-8 8s-8-3.574218-8-8c0-15.4375 12.558594-28 28-28s28 12.5625 28 28c0 4.425782-3.574219 8-8 8zm0 0"/><path d="m472 176.003906c-4.425781 0-8-3.574218-8-8v-4c0-4.421875 3.574219-8 8-8s8 3.578125 8 8v4c0 4.425782-3.574219 8-8 8zm0 0"/><path d="m432 176.003906c-4.425781 0-8-3.574218-8-8v-4c0-4.421875 3.574219-8 8-8s8 3.578125 8 8v4c0 4.425782-3.574219 8-8 8zm0 0"/><path d="m376 232.015625h-88c-4.425781 0-8-3.578125-8-8 0-4.425781 3.574219-8 8-8h88c4.425781 0 8 3.574219 8 8 0 4.421875-3.574219 8-8 8zm0 0"/><path d="m376 272.003906h-15.480469c-4.421875 0-8-3.574218-8-8 0-4.421875 3.578125-8 8-8h15.480469c4.425781 0 8 3.578125 8 8 0 4.425782-3.574219 8-8 8zm0 0"/><path d="m136 232.003906c-35.289062 0-64-28.710937-64-64 0-4.421875 3.574219-8 8-8s8 3.578125 8 8c0 26.472656 21.527344 48 48 48 4.425781 0 8 3.578125 8 8 0 4.425782-3.574219 8-8 8zm0 0"/><path d="m136 272.003906c-57.34375 0-104-46.652344-104-104 0-4.421875 3.574219-8 8-8s8 3.578125 8 8c0 48.523438 39.480469 88 88 88 4.425781 0 8 3.578125 8 8 0 4.425782-3.574219 8-8 8zm0 0"/><path d="m80 172.003906c-4.425781 0-8-3.574218-8-8 0-6.613281-5.382812-12-12-12s-12 5.386719-12 12c0 4.425782-3.574219 8-8 8s-8-3.574218-8-8c0-15.4375 12.558594-28 28-28s28 12.5625 28 28c0 4.425782-3.574219 8-8 8zm0 0"/><path d="m40 176.003906c-4.425781 0-8-3.574218-8-8v-4c0-4.421875 3.574219-8 8-8s8 3.578125 8 8v4c0 4.425782-3.574219 8-8 8zm0 0"/><path d="m80 176.003906c-4.425781 0-8-3.574218-8-8v-4c0-4.421875 3.574219-8 8-8s8 3.578125 8 8v4c0 4.425782-3.574219 8-8 8zm0 0"/><path d="m224 232.015625h-88c-4.425781 0-8-3.578125-8-8 0-4.425781 3.574219-8 8-8h88c4.425781 0 8 3.574219 8 8 0 4.421875-3.574219 8-8 8zm0 0"/><path d="m151.480469 272.003906h-15.480469c-4.425781 0-8-3.574218-8-8 0-4.421875 3.574219-8 8-8h15.480469c4.421875 0 8 3.578125 8 8 0 4.425782-3.585938 8-8 8zm0 0"/><path d="m80 360.003906h-48c-4.425781 0-8-3.574218-8-8v-64c0-4.421875 3.574219-8 8-8h48c4.425781 0 8 3.578125 8 8v64c0 4.425782-3.574219 8-8 8zm-40-16h32v-48h-32zm0 0"/><path d="m472 360.003906h-48c-4.425781 0-8-3.574218-8-8v-72c0-4.421875 3.574219-8 8-8h48c4.425781 0 8 3.578125 8 8v72c0 4.425782-3.574219 8-8 8zm-40-16h32v-56h-32zm0 0"/><path d="m104 344.003906h-24c-4.425781 0-8-3.574218-8-8v-31.988281c0-4.425781 3.574219-8 8-8h24c4.425781 0 8 3.574219 8 8v31.988281c0 4.425782-3.574219 8-8 8zm-16-16h8v-15.988281h-8zm0 0"/><path d="m104 128.003906h-96c-4.425781 0-8-3.574218-8-8v-112c0-4.421875 3.574219-7.99999975 8-7.99999975h96c4.425781 0 8 3.57812475 8 7.99999975v112c0 4.425782-3.574219 8-8 8zm-88-16h80v-96h-80zm0 0"/><path d="m40.007812 40.003906c-2.582031 0-5.128906-1.246094-6.664062-3.558594l-16-23.992187c-2.457031-3.671875-1.464844-8.640625 2.214844-11.09375 3.664062-2.457031 8.648437-1.464844 11.097656 2.214844l16 23.992187c2.457031 3.671875 1.464844 8.640625-2.214844 11.09375-1.363281.90625-2.914062 1.34375-4.433594 1.34375zm0 0"/><path d="m72 40.003906h-32c-4.425781 0-8-3.574218-8-8 0-4.421875 3.574219-8 8-8h32c4.425781 0 8 3.578125 8 8 0 4.425782-3.574219 8-8 8zm0 0"/><path d="m71.992188 40.003906c-1.519532 0-3.0625-.4375-4.433594-1.34375-3.679688-2.453125-4.671875-7.414062-2.214844-11.09375l16-24c2.449219-3.671875 7.398438-4.671875 11.097656-2.214844 3.679688 2.453126 4.671875 7.414063 2.214844 11.09375l-16 24c-1.535156 2.3125-4.082031 3.558594-6.664062 3.558594zm0 0"/><path d="m72 72.003906h-32c-4.425781 0-8-3.574218-8-8 0-4.421875 3.574219-8 8-8h32c4.425781 0 8 3.578125 8 8 0 4.425782-3.574219 8-8 8zm0 0"/><path d="m72 96.003906h-32c-4.425781 0-8-3.574218-8-8 0-4.421875 3.574219-8 8-8h32c4.425781 0 8 3.578125 8 8 0 4.425782-3.574219 8-8 8zm0 0"/><path d="m504 112.003906h-112c-4.425781 0-8-3.574218-8-8v-72c0-4.421875 3.574219-8 8-8h112c4.425781 0 8 3.578125 8 8v72c0 4.425782-3.574219 8-8 8zm-104-16h96v-56h-96zm0 0"/><path d="m448 88.003906c-1.839844 0-3.695312-.628906-5.199219-1.925781l-56-48c-3.359375-2.871094-3.753906-7.921875-.863281-11.273437 2.871094-3.359376 7.925781-3.742188 11.269531-.863282l56 48c3.359375 2.871094 3.753907 7.921875.863281 11.273438-1.574218 1.847656-3.824218 2.789062-6.070312 2.789062zm0 0"/><path d="m448 88.003906c-2.246094 0-4.496094-.941406-6.070312-2.796875-2.882813-3.351562-2.496094-8.402343.863281-11.273437l56-48c3.367187-2.871094 8.40625-2.488282 11.277343.871094 2.882813 3.351562 2.496094 8.402343-.863281 11.273437l-56 48c-1.511719 1.296875-3.367187 1.925781-5.207031 1.925781zm0 0"/><path d="m504 112.003906c-1.839844 0-3.695312-.628906-5.199219-1.925781l-41.96875-35.976563c-3.359375-2.871093-3.753906-7.917968-.863281-11.273437 2.871094-3.367187 7.925781-3.742187 11.269531-.863281l41.96875 35.976562c3.359375 2.871094 3.753907 7.921875.863281 11.273438-1.574218 1.847656-3.824218 2.789062-6.070312 2.789062zm0 0"/><path d="m392 112.003906c-2.246094 0-4.496094-.941406-6.070312-2.796875-2.882813-3.351562-2.496094-8.402343.863281-11.273437l42-36c3.351562-2.863282 8.40625-2.503906 11.269531.863281 2.882812 3.351563 2.496094 8.402344-.863281 11.273437l-42 36c-1.503907 1.304688-3.359375 1.933594-5.199219 1.933594zm0 0"/><path d="m328 87.996094c-4.425781 0-8-3.574219-8-8 0-13.222656-10.769531-23.992188-24-23.992188-4.425781 0-8-3.574218-8-8 0-4.421875 3.574219-8 8-8 22.054688 0 40 17.9375 40 39.992188 0 4.425781-3.574219 8-8 8zm0 0"/><path d="m296 56.003906c-4.425781 0-8-3.574218-8-8v-32c0-4.421875 3.574219-8 8-8s8 3.578125 8 8v32c0 4.425782-3.574219 8-8 8zm0 0"/><path d="m184 88.003906c-4.425781 0-8-3.574218-8-8 0-39.703125 32.296875-72 72-72 4.425781 0 8 3.578125 8 8 0 4.425782-3.574219 8-8 8-30.871094 0-56 25.128906-56 56 0 4.425782-3.574219 8-8 8zm0 0"/><path d="m327.992188 112.207031c-1.535157 0-3.097657-.449219-4.472657-1.371093l-24-16.199219c-3.664062-2.480469-4.625-7.445313-2.160156-11.109375 2.480469-3.65625 7.441406-4.617188 11.113281-2.160156l24 16.199218c3.664063 2.480469 4.625 7.449219 2.160156 11.113282-1.542968 2.292968-4.074218 3.527343-6.640624 3.527343zm0 0"/><path d="m260 104.003906c-28.894531 0-53.496094-8.0625-54.519531-8.40625-4.183594-1.398437-6.457031-5.917968-5.074219-10.113281 1.394531-4.183594 5.921875-6.46875 10.113281-5.078125.234375.085938 23.265625 7.597656 49.480469 7.597656 25.425781 0 40.320312-7.101562 40.472656-7.175781 3.941406-1.917969 8.75-.292969 10.695313 3.65625 1.945312 3.953125.34375 8.722656-3.59375 10.6875-.734375.355469-18.085938 8.832031-47.574219 8.832031zm0 0"/><path d="m184.007812 112.207031c-2.566406 0-5.097656-1.234375-6.640624-3.519531-2.472657-3.664062-1.503907-8.632812 2.160156-11.113281l24-16.199219c3.679687-2.464844 8.640625-1.503906 11.113281 2.160156 2.472656 3.664063 1.503906 8.628906-2.160156 11.109375l-24 16.203125c-1.375.917969-2.9375 1.359375-4.472657 1.359375zm0 0"/><path d="m296 24.003906h-48c-4.425781 0-8-3.574218-8-8 0-4.421875 3.574219-8 8-8h48c4.425781 0 8 3.578125 8 8 0 4.425782-3.574219 8-8 8zm0 0"/></g></svg>