<svg version="1.0" xmlns="http://www.w3.org/2000/svg" width="173px" height="73px" viewBox="0 0 1730 730" preserveAspectRatio="xMidYMid meet">
<g id="layer101" fill="#752a2c" stroke="none">
 <path d="M27 723 c-3 -5 -6 -161 -8 -348 l-3 -340 49 -2 c69 -2 935 -12 1315 -15 l315 -3 3 342 3 342 -23 5 c-48 10 -1438 15 -1438 6 0 -6 -5 -10 -11 -10 -5 0 -8 4 -5 9 3 5 -11 11 -32 15 -52 8 -160 8 -165 -1z m526 -20 c3 -5 -17 -8 -43 -8 -27 0 -52 3 -56 8 -4 4 16 7 44 7 28 0 53 -3 55 -7z m-423 -13 c-12 -8 -10 -10 10 -9 23 1 238 -4 695 -15 88 -2 149 -2 135 1 -13 3 -32 11 -42 17 -16 11 -14 13 12 13 17 0 30 -4 30 -9 0 -5 5 -6 10 -3 6 3 20 3 33 -1 21 -7 21 -7 2 -15 -11 -5 122 -8 302 -6 177 1 325 -1 329 -5 4 -4 6 -38 4 -75 -1 -38 -5 -169 -9 -293 l-6 -225 -775 4 c-426 2 -779 7 -783 11 -4 4 -8 78 -8 166 0 88 -4 153 -8 146 -6 -10 -10 -6 -13 12 -6 28 7 45 15 24 3 -7 6 44 6 114 l1 127 28 14 c31 17 55 22 32 7z m970 -6 c0 -13 -3 -14 -14 -5 -7 6 -22 9 -32 5 -16 -5 -16 -4 -4 5 22 16 50 13 50 -5z m80 6 c24 -15 7 -19 -25 -5 -23 10 -25 14 -10 14 11 0 27 -3 35 -9z m85 0 c4 -6 -6 -10 -22 -9 -25 0 -26 1 -8 9 11 5 21 9 22 9 1 1 5 -3 8 -9z m165 1 c-20 -12 -120 -20 -120 -10 0 9 37 15 95 17 26 1 35 -1 25 -7z m250 -348 c0 -20 -3 -24 -11 -16 -7 7 -9 19 -6 27 10 24 17 19 17 -11z"/>
 <path d="M337 543 c-13 -12 -7 -24 18 -33 25 -9 25 -10 25 -144 0 -83 -4 -137 -10 -141 -20 -12 -56 22 -69 64 -17 59 -41 55 -41 -8 0 -82 -3 -80 128 -82 65 -1 135 -2 157 -3 l40 -1 3 68 c2 52 0 68 -9 65 -7 -2 -16 -17 -20 -32 -10 -36 -37 -66 -61 -66 -17 0 -18 10 -18 136 0 127 1 136 20 141 20 5 29 33 10 33 -5 0 -10 -4 -10 -9 0 -8 -20 -8 -60 -2 -3 1 2 6 10 11 11 7 -3 10 -46 10 -33 0 -64 -3 -67 -7z m53 -13 c12 -8 11 -10 -7 -10 -13 0 -23 5 -23 10 0 13 11 13 30 0z m35 -290 c3 -5 4 -14 0 -20 -8 -13 -35 -1 -35 16 0 16 26 19 35 4z m35 -12 c0 -16 -3 -19 -11 -11 -6 6 -8 16 -5 22 11 17 16 13 16 -11z"/>
 <path d="M1265 539 c-48 -12 -100 -60 -116 -108 -20 -60 -16 -133 9 -169 47 -66 76 -77 195 -78 l107 0 0 68 c0 54 -3 68 -15 68 -9 0 -20 -12 -26 -27 -32 -86 -117 -104 -154 -34 -18 37 -20 165 -2 201 7 14 26 29 45 35 41 12 41 23 0 28 -29 3 -27 4 10 5 23 1 41 -1 40 -5 -3 -14 92 -104 102 -98 16 10 12 30 -11 59 -39 50 -112 71 -184 55z m5 -43 c0 -7 -7 -19 -15 -26 -12 -10 -15 -9 -15 7 0 11 3 23 7 26 11 12 23 8 23 -7z"/>
 <path d="M696 533 c-4 -4 3 -15 16 -24 21 -17 22 -23 20 -141 -3 -108 -5 -125 -22 -140 -11 -9 -20 -18 -20 -21 0 -5 135 -12 218 -10 107 3 149 45 128 129 -10 38 -106 75 -106 42 0 -9 -3 -9 -9 1 -5 8 -26 17 -47 20 -38 6 -39 7 -42 54 -3 42 0 48 22 59 15 6 26 17 26 25 0 10 -21 13 -88 13 -49 0 -92 -3 -96 -7z m107 -60 c-7 -2 -13 -12 -13 -21 0 -12 -3 -13 -11 -5 -14 14 -3 33 19 32 11 0 12 -3 5 -6z m122 -133 c20 -17 19 -79 -2 -102 -17 -19 -58 -24 -81 -10 -13 9 -17 32 -14 96 l2 39 40 -6 c23 -3 47 -11 55 -17z m-140 -70 c-3 -5 -1 -10 4 -10 6 0 11 -9 11 -20 0 -11 -4 -20 -10 -20 -5 0 -10 8 -10 18 0 10 -5 23 -12 30 -9 9 -8 12 6 12 9 0 14 -4 11 -10z m205 -20 c0 -5 -5 -10 -11 -10 -5 0 -7 -4 -4 -10 3 -5 1 -10 -4 -10 -12 0 -15 23 -4 33 10 10 23 8 23 -3z"/>
 </g>
<g id="layer102" fill="#ba272e" stroke="none">
 <path d="M27 724 c-4 -8 -12 -630 -8 -681 1 -11 15 -12 164 -15 15 0 96 0 180 1 83 1 278 -1 432 -4 154 -3 420 -6 590 -8 l310 -2 3 342 3 342 -33 5 c-66 10 -1429 16 -1423 6 3 -6 0 -10 -9 -10 -8 0 -16 5 -18 11 -5 14 -183 25 -191 13z m281 -21 c-10 -2 -26 -2 -35 0 -10 3 -2 5 17 5 19 0 27 -2 18 -5z m252 0 c0 -5 -22 -8 -49 -8 -27 0 -53 3 -57 8 -4 4 18 7 49 7 32 0 57 -3 57 -7z m-424 -11 c-6 -9 -30 -8 304 -16 151 -3 338 -8 415 -10 77 -2 129 -2 115 1 -13 3 -33 11 -44 18 -17 13 -16 14 13 13 17 -1 31 -5 31 -10 0 -5 5 -6 10 -3 6 3 20 3 31 0 17 -6 19 -9 8 -17 -9 -5 104 -8 304 -6 274 3 319 1 327 -12 5 -8 8 -21 5 -29 -3 -7 -8 -137 -12 -287 l-6 -274 -776 6 c-427 4 -780 10 -784 14 -5 4 -8 78 -8 165 -1 87 -4 153 -8 146 -6 -9 -10 -5 -13 13 -6 28 7 45 15 24 3 -7 6 47 6 120 1 124 2 132 20 132 11 0 23 5 26 10 3 6 11 10 16 10 6 0 8 -4 5 -8z m964 -8 c0 -13 -3 -14 -14 -5 -7 6 -22 9 -32 5 -16 -5 -16 -4 -4 5 22 16 50 13 50 -5z m86 1 c18 -14 17 -15 -11 -9 -37 8 -57 24 -29 24 11 0 29 -7 40 -15z m79 5 c4 -6 -6 -10 -22 -9 -25 0 -26 1 -8 9 11 5 21 9 22 9 1 1 5 -3 8 -9z m170 1 c-13 -12 -125 -22 -125 -11 0 5 -8 10 -17 12 -9 2 21 4 67 6 49 1 80 -2 75 -7z m245 -321 c0 -28 -5 -50 -10 -50 -7 0 -9 19 -6 48 6 56 5 52 11 52 3 0 5 -22 5 -50z"/>
 <path d="M337 543 c-12 -12 -8 -20 18 -31 25 -12 25 -12 25 -146 0 -83 -4 -137 -10 -141 -17 -11 -59 23 -66 53 -8 30 -22 52 -35 52 -11 0 -12 -100 -1 -116 4 -8 46 -12 116 -13 60 0 124 -3 142 -7 50 -9 64 7 64 77 0 65 -12 76 -29 27 -15 -41 -39 -68 -63 -68 -18 0 -19 8 -17 148 2 138 1 147 -17 147 -10 1 -18 6 -16 13 2 13 -99 18 -111 5z m58 -13 c3 -5 -3 -10 -14 -10 -12 0 -21 5 -21 10 0 6 6 10 14 10 8 0 18 -4 21 -10z m32 -295 c3 -9 3 -18 1 -21 -9 -9 -38 8 -38 22 0 19 29 18 37 -1z m39 -23 c-10 -10 -29 15 -21 28 6 9 10 8 17 -4 6 -10 7 -20 4 -24z"/>
 <path d="M1280 540 c-77 -14 -126 -67 -139 -151 -14 -88 16 -152 89 -189 33 -17 55 -19 132 -17 l93 4 3 66 c2 53 0 67 -11 67 -8 0 -20 -14 -27 -30 -19 -46 -68 -83 -99 -75 -53 13 -66 38 -69 134 -4 102 4 126 54 147 35 15 48 30 17 20 -10 -3 -25 -1 -33 4 -11 7 -1 10 35 10 28 0 45 -4 38 -8 -9 -6 -4 -13 17 -26 17 -9 37 -31 46 -47 14 -28 34 -35 41 -13 2 5 -6 24 -17 42 -29 48 -104 75 -170 62z m-10 -44 c0 -7 -7 -19 -15 -26 -12 -10 -15 -9 -15 7 0 11 3 23 7 26 11 12 23 8 23 -7z m-30 -78 c0 -32 -15 -19 -16 13 -1 20 2 26 7 17 5 -7 9 -21 9 -30z"/>
 <path d="M500 525 c0 -8 5 -15 10 -15 6 0 10 7 10 15 0 8 -4 15 -10 15 -5 0 -10 -7 -10 -15z"/>
 <path d="M700 529 c0 -6 8 -18 18 -25 15 -11 17 -28 14 -136 -3 -109 -6 -125 -24 -140 -11 -10 -19 -18 -17 -19 2 0 13 -2 24 -5 36 -7 255 -7 262 0 4 4 1 11 -6 15 -22 14 -6 36 26 36 17 0 29 -3 26 -7 -2 -5 -13 -8 -24 -8 -20 0 -26 -15 -9 -25 5 -3 18 3 30 15 28 28 27 92 -1 119 -26 24 -82 38 -87 22 -2 -7 -9 -6 -19 4 -8 8 -30 15 -49 15 l-34 0 0 50 c0 44 3 52 25 62 45 20 22 33 -68 36 -62 2 -87 -1 -87 -9z m115 -59 c-4 -6 -11 -7 -17 -4 -6 4 -8 -1 -3 -15 6 -20 5 -21 -14 -9 -24 15 -26 24 -8 31 22 9 48 7 42 -3z m117 -133 c14 -23 9 -83 -9 -99 -36 -31 -93 -27 -93 7 0 7 -5 15 -11 17 -9 3 -9 9 0 25 6 12 11 34 11 49 0 26 1 27 47 20 26 -3 50 -12 55 -19z m-147 -67 c-3 -5 -1 -10 4 -10 6 0 11 -9 11 -20 0 -11 -4 -20 -10 -20 -5 0 -10 8 -10 18 0 10 -5 23 -12 30 -9 9 -8 12 6 12 9 0 14 -4 11 -10z"/>
 </g>

</svg>